<?xml version="1.0" encoding="UTF-8" standalone="no"?> <svg width="212" height="212" viewBox="0 0 512 512" fill="none" xmlns="http://www.w3.org/2000/svg">
<path d="M176 184H96C93.8783 184 91.8434 183.157 90.3431 181.657C88.8429 180.157 88 178.122 88 176V96C88 93.8783 88.8429 91.8434 90.3431 90.3431C91.8434 88.8429 93.8783 88 96 88H176C178.122 88 180.157 88.8429 181.657 90.3431C183.157 91.8434 184 93.8783 184 96V176C184 178.122 183.157 180.157 181.657 181.657C180.157 183.157 178.122 184 176 184ZM104 168H168V104H104V168Z" fill="#007AF6"/>
<path d="M152 120H120V152H152V120Z" fill="#007AF6"/>
<path d="M416 184H336C333.878 184 331.843 183.157 330.343 181.657C328.843 180.157 328 178.122 328 176V96C328 93.8783 328.843 91.8434 330.343 90.3431C331.843 88.8429 333.878 88 336 88H416C418.122 88 420.157 88.8429 421.657 90.3431C423.157 91.8434 424 93.8783 424 96V176C424 178.122 423.157 180.157 421.657 181.657C420.157 183.157 418.122 184 416 184ZM344 168H408V104H344V168Z" fill="#007AF6"/>
<path d="M392 120H360V152H392V120Z" fill="#007AF6"/>
<path d="M176 424H96C93.8783 424 91.8434 423.157 90.3431 421.657C88.8429 420.157 88 418.122 88 416V336C88 333.878 88.8429 331.843 90.3431 330.343C91.8434 328.843 93.8783 328 96 328H176C178.122 328 180.157 328.843 181.657 330.343C183.157 331.843 184 333.878 184 336V416C184 418.122 183.157 420.157 181.657 421.657C180.157 423.157 178.122 424 176 424ZM104 408H168V344H104V408Z" fill="#007AF6"/>
<path d="M152 360H120V392H152V360Z" fill="#007AF6"/>
<path d="M96 496H24C21.8783 496 19.8434 495.157 18.3431 493.657C16.8429 492.157 16 490.122 16 488V416C16 413.878 16.8429 411.843 18.3431 410.343C19.8434 408.843 21.8783 408 24 408C26.1217 408 28.1566 408.843 29.6569 410.343C31.1571 411.843 32 413.878 32 416V480H96C98.1217 480 100.157 480.843 101.657 482.343C103.157 483.843 104 485.878 104 488C104 490.122 103.157 492.157 101.657 493.657C100.157 495.157 98.1217 496 96 496Z" fill="#65D3E0"/>
<path d="M24 104C21.8783 104 19.8434 103.157 18.3431 101.657C16.8429 100.157 16 98.1217 16 96V24C16 21.8783 16.8429 19.8434 18.3431 18.3431C19.8434 16.8429 21.8783 16 24 16H96C98.1217 16 100.157 16.8429 101.657 18.3431C103.157 19.8434 104 21.8783 104 24C104 26.1217 103.157 28.1566 101.657 29.6569C100.157 31.1571 98.1217 32 96 32H32V96C32 98.1217 31.1571 100.157 29.6569 101.657C28.1566 103.157 26.1217 104 24 104Z" fill="#65D3E0"/>
<path d="M488 496H416C413.878 496 411.843 495.157 410.343 493.657C408.843 492.157 408 490.122 408 488C408 485.878 408.843 483.843 410.343 482.343C411.843 480.843 413.878 480 416 480H480V416C480 413.878 480.843 411.843 482.343 410.343C483.843 408.843 485.878 408 488 408C490.122 408 492.157 408.843 493.657 410.343C495.157 411.843 496 413.878 496 416V488C496 490.122 495.157 492.157 493.657 493.657C492.157 495.157 490.122 496 488 496Z" fill="#65D3E0"/>
<path d="M488 104C485.878 104 483.843 103.157 482.343 101.657C480.843 100.157 480 98.1217 480 96V32H416C413.878 32 411.843 31.1571 410.343 29.6569C408.843 28.1566 408 26.1217 408 24C408 21.8783 408.843 19.8434 410.343 18.3431C411.843 16.8429 413.878 16 416 16H488C490.122 16 492.157 16.8429 493.657 18.3431C495.157 19.8434 496 21.8783 496 24V96C496 98.1217 495.157 100.157 493.657 101.657C492.157 103.157 490.122 104 488 104Z" fill="#65D3E0"/>
<path d="M288 88V136H264H240V184H224V128H200V208H280V184H264V160H288V184H312V88H288Z" fill="#007AF6"/>
<path d="M272 88H216V112H272V88Z" fill="#007AF6"/>
<path d="M112 200H88V280H152V312H176V256H112V200Z" fill="#007AF6"/>
<path d="M376 248H344V200H320V272H352V288H320V312H376V248Z" fill="#007AF6"/>
<path d="M352 368H240V336H272V352H304V296H272V312H224V280H304V256H200V336H216V392H264V424H296V392H352V368Z" fill="#007AF6"/>
<path d="M416 200H392V312H416V200Z" fill="#007AF6"/>
<path d="M320 352H392V368H368V400H336V424H416V400H392V384H416V328H320V352Z" fill="#007AF6"/>
<path d="M136 296H88V312H136V296Z" fill="#007AF6"/>
<path d="M248 408H200V424H248V408Z" fill="#007AF6"/>
<!-- <path d="M488 240H24C21.8783 240 19.8434 239.157 18.3431 237.657C16.8429 236.157 16 234.122 16 232C16 229.878 16.8429 227.843 18.3431 226.343C19.8434 224.843 21.8783 224 24 224H488C490.122 224 492.157 224.843 493.657 226.343C495.157 227.843 496 229.878 496 232C496 234.122 495.157 236.157 493.657 237.657C492.157 239.157 490.122 240 488 240Z" fill="#E82F3E"/> -->
</svg>
